M48
; DRILL file {KiCad (5.1.9)-1} date 09/22/21 21:37:55
; FORMAT={3:3/ absolute / metric / suppress leading zeros}
; #@! TF.CreationDate,2021-09-22T21:37:55-04:00
; #@! TF.GenerationSoftware,Kicad,Pcbnew,(5.1.9)-1
FMAT,2
METRIC,TZ
T1C0.508
T2C0.635
T3C0.762
T4C0.889
T5C1.143
T6C5.334
T7C7.112
%
G90
G05
T1
X66171Y-44669
X66298Y-39564
X72419Y-39793
X72470Y-44796
X78206Y-42322
X81660Y-37064
X83210Y-37064
X84607Y-47554
X85750Y-48672
T2
X45234Y-44833
X45255Y-32222
X45255Y-39740
X45369Y-52076
X46024Y-49311
X46441Y-41385
X46910Y-35197
X47175Y-37927
X47917Y-44282
X48374Y-45745
X48674Y-38195
X49350Y-40644
X49997Y-34944
X50057Y-43110
X50152Y-47559
X50200Y-32235
X51913Y-39894
X51966Y-49373
X52165Y-41542
X52815Y-51030
X52943Y-32210
X54276Y-43142
X54276Y-50660
X55223Y-32507
X55335Y-45712
X55422Y-37202
X55865Y-48131
X56816Y-39565
X57197Y-32061
X57891Y-45489
X57949Y-36813
X58064Y-49976
X58337Y-31988
X58744Y-34701
X59275Y-39225
X59679Y-41804
X60022Y-50755
X60423Y-45293
X60534Y-47853
X60679Y-36548
X61660Y-36060
X62540Y-35501
X64739Y-33656
X65170Y-49023
X66124Y-37142
X67391Y-47740
X67597Y-33455
X68641Y-38112
X68929Y-52340
X69604Y-46492
X70098Y-33979
X70602Y-36352
X70796Y-48268
X71930Y-50578
X73354Y-50217
X73496Y-37756
X73496Y-47281
X74924Y-44985
X74949Y-39880
X74949Y-42445
X75903Y-36166
X76049Y-47342
X76351Y-39815
X77360Y-32033
X77405Y-39970
X77405Y-44923
X77544Y-36236
X77626Y-51772
X78487Y-34154
X79050Y-49205
X79949Y-35648
X82600Y-51881
X82766Y-32806
X84970Y-32312
X84988Y-36656
X85921Y-35421
T3
X47065Y-52296
X47764Y-32268
X61450Y-50900
X67763Y-51787
T4
X86651Y-46957
T5
X63210Y-39777
X63210Y-44657
T6
X69244Y-42256
T7
X82854Y-42195
T0
M30
