G04 #@! TF.GenerationSoftware,KiCad,Pcbnew,(5.1.9)-1*
G04 #@! TF.CreationDate,2021-09-22T21:38:01-04:00*
G04 #@! TF.ProjectId,Transroc,5472616e-7372-46f6-932e-6b696361645f,3*
G04 #@! TF.SameCoordinates,Original*
G04 #@! TF.FileFunction,Soldermask,Bot*
G04 #@! TF.FilePolarity,Negative*
%FSLAX46Y46*%
G04 Gerber Fmt 4.6, Leading zero omitted, Abs format (unit mm)*
G04 Created by KiCad (PCBNEW (5.1.9)-1) date 2021-09-22 21:38:01*
%MOMM*%
%LPD*%
G01*
G04 APERTURE LIST*
%ADD10C,1.524000*%
%ADD11C,1.397000*%
%ADD12C,1.778000*%
%ADD13C,2.032000*%
%ADD14C,5.334000*%
%ADD15C,7.112000*%
G04 APERTURE END LIST*
D10*
X67763355Y-51787284D03*
X61450000Y-50900000D03*
D11*
X71930195Y-50578383D03*
X68929300Y-52340280D03*
D12*
X86651000Y-46957300D03*
D11*
X55865299Y-48131071D03*
X58064000Y-49976000D03*
X62540299Y-35500929D03*
X64739000Y-33656000D03*
X79948576Y-35648023D03*
X77544235Y-36236434D03*
X78487320Y-34153880D03*
X57948846Y-36812816D03*
X60679393Y-36548428D03*
X47174513Y-37927368D03*
X46910124Y-35196820D03*
X58744130Y-34700729D03*
X58337197Y-31987761D03*
X56816000Y-39564675D03*
X55422403Y-37201694D03*
X50200000Y-32235400D03*
X52943200Y-32210000D03*
X65169598Y-49022703D03*
X67391300Y-47740003D03*
X69603705Y-46492000D03*
X74949000Y-39879600D03*
X74949000Y-42445000D03*
X74923600Y-44985000D03*
X55335148Y-45712286D03*
X57890786Y-45488697D03*
X60423335Y-45292624D03*
X51966012Y-49373011D03*
X50152000Y-47559000D03*
X48373910Y-45744988D03*
X50056704Y-43110022D03*
X49349584Y-40644001D03*
X48673881Y-38195395D03*
X60534000Y-47853000D03*
X60022363Y-50754638D03*
D13*
X63210000Y-44656600D03*
X63210000Y-39776600D03*
D11*
X68640892Y-38111953D03*
X75903108Y-36166047D03*
X77359916Y-32032714D03*
X70097700Y-33978620D03*
X84970000Y-32312000D03*
X85920559Y-35421138D03*
X84988250Y-36655741D03*
X82765750Y-32806259D03*
X45255000Y-39740200D03*
X45255000Y-32221800D03*
D10*
X47064593Y-52296392D03*
X47764000Y-32268000D03*
D11*
X45234081Y-44833459D03*
X46023589Y-49310986D03*
X52814616Y-51029820D03*
X45369384Y-52076180D03*
X54276000Y-43141800D03*
X54276000Y-50660200D03*
X59679231Y-41804227D03*
X52165411Y-41541839D03*
X66297800Y-39564000D03*
X66170800Y-44669400D03*
D14*
X69244200Y-42256400D03*
D11*
X72419200Y-39792600D03*
X72470000Y-44796400D03*
X70795839Y-48267912D03*
X76048804Y-47341672D03*
X82599967Y-51880534D03*
X79050033Y-49205466D03*
X73496220Y-47280600D03*
X73496220Y-37755600D03*
X77405280Y-39970480D03*
X77405280Y-44923480D03*
X73353594Y-50216971D03*
X77626000Y-51772000D03*
X47917000Y-44282000D03*
X46440986Y-41385160D03*
X67597000Y-33455000D03*
X76350887Y-39815072D03*
X70601527Y-36352491D03*
X66124000Y-37142000D03*
X49997411Y-34943732D03*
X55223000Y-32507000D03*
X57197040Y-32060920D03*
X51913338Y-39894330D03*
X59275000Y-39225000D03*
X61659632Y-36060487D03*
D15*
X82854000Y-42195000D03*
D11*
X78205800Y-42322000D03*
X81660200Y-37064200D03*
X83209600Y-37064200D03*
X84606600Y-47554400D03*
X85749600Y-48672000D03*
M02*
